<?xml version="1.0" encoding="utf-8"?><svg xmlns="http://www.w3.org/2000/svg" xmlns:xlink="http://www.w3.org/1999/xlink"><symbol viewBox="0 0 12 6" id="arrow" xmlns="http://www.w3.org/2000/svg"><path opacity=".5" d="M11.609 3.252a.356.356 0 000-.504L9.343.483a.356.356 0 10-.503.503L10.854 3 8.84 5.014a.356.356 0 10.503.503l2.266-2.265zM0 3.356h11.357v-.712H0v.712z"/></symbol><symbol viewBox="0 0 20 21" id="telegram" xmlns="http://www.w3.org/2000/svg"><g clip-path="url(#bclip0)"><path d="M7.821 12.745l-.33 4.637c.472 0 .677-.202.922-.446l2.211-2.113 4.583 3.356c.84.468 1.433.222 1.66-.773L19.875 3.31v-.001c.267-1.243-.448-1.729-1.267-1.424L.925 8.655C-.28 9.123-.263 9.796.72 10.101l4.52 1.406 10.502-6.57c.494-.328.943-.147.573.18l-8.494 7.628z"/></g><defs><clipPath id="bclip0"><path transform="translate(0 .136)" d="M0 0h19.933v19.933H0z"/></clipPath></defs></symbol><symbol viewBox="0 0 17 17" id="tell" xmlns="http://www.w3.org/2000/svg"><circle cx="8.5" cy="8.5" r="8.5"/><path d="M11.987 10.654l-1.1-1.297c-.394-.464-1.062-.278-1.22.324-.117.417-.51.649-.864.556-.786-.231-1.848-1.436-2.045-2.41-.117-.417.118-.88.472-1.02.511-.184.669-.972.275-1.436l-1.1-1.297c-.315-.325-.787-.325-1.062 0l-.747.88c-.747.927.079 3.383 1.927 5.561 1.847 2.179 3.931 3.198 4.717 2.271l.747-.88c.275-.371.275-.927 0-1.252z"/></symbol><symbol viewBox="0 0 24 24" id="viber" xmlns="http://www.w3.org/2000/svg"><path d="M23.155 13.893c.716-6.027-.344-9.832-2.256-11.553l.001-.001C17.814-.6 7.392-1.035 3.7 2.471 2.042 4.186 1.458 6.703 1.394 9.819c-.064 3.117-.14 8.956 5.301 10.54H6.7l-.005 2.419s-.037.98.589 1.177c.716.232 1.04-.223 3.267-2.883 3.724.323 6.584-.417 6.909-.525.752-.252 5.007-.815 5.695-6.654zM10.918 19.37s-2.357 2.939-3.09 3.702c-.24.248-.503.225-.499-.267 0-.323.018-4.016.018-4.016-4.613-1.322-4.341-6.294-4.291-8.895.05-2.602.526-4.733 1.93-6.168C8.225.689 17.362 1.368 19.69 3.556c2.846 2.523 1.833 9.651 1.839 9.894-.585 4.874-4.033 5.183-4.667 5.394-.271.09-2.786.737-5.944.526z"/><path d="M12.222 4.297c-.385 0-.385.6 0 .605 2.987.023 5.447 2.105 5.474 5.924 0 .403.59.398.585-.005h-.001c-.032-4.115-2.718-6.501-6.058-6.524z"/><path d="M16.151 10.193c-.009.398.58.417.585.014.049-2.269-1.35-4.138-3.979-4.335-.385-.028-.425.577-.041.605 2.28.173 3.481 1.729 3.435 3.716zm-.63 2.581c-.494-.286-.997-.108-1.205.173l-.435.563c-.221.286-.634.248-.634.248-3.014-.797-3.82-3.951-3.82-3.951s-.037-.427.239-.656l.544-.45c.272-.216.444-.736.167-1.247-.74-1.337-1.237-1.798-1.49-2.152-.266-.333-.666-.408-1.082-.183h-.009c-.865.506-1.812 1.453-1.509 2.428.517 1.028 1.467 4.305 4.495 6.781 1.423 1.171 3.675 2.371 4.631 2.648l.009.014c.942.314 1.858-.67 2.347-1.561v-.007c.217-.431.145-.839-.172-1.106-.562-.548-1.41-1.153-2.076-1.542z"/><path d="M13.169 8.104c.961.056 1.427.558 1.477 1.589.018.403.603.375.585-.028-.064-1.346-.766-2.096-2.03-2.166-.385-.023-.421.582-.032.605z"/></symbol><symbol viewBox="0 0 21 21" id="whatsapp" xmlns="http://www.w3.org/2000/svg"><g clip-path="url(#eclip0)"><path d="M10.716.424h-.005C5.216.424.747 4.894.747 10.39a9.9 9.9 0 001.897 5.842l-1.242 3.703 3.831-1.225a9.88 9.88 0 005.483 1.647c5.495 0 9.964-4.471 9.964-9.967 0-5.495-4.469-9.966-9.964-9.966zm5.8 14.074c-.241.679-1.195 1.242-1.956 1.406-.521.111-1.202.2-3.491-.75-2.93-1.213-4.815-4.19-4.962-4.382-.141-.194-1.184-1.576-1.184-3.007 0-1.43.726-2.126 1.02-2.425.24-.246.637-.358 1.018-.358.124 0 .234.007.334.011.293.013.44.03.633.493.24.579.826 2.01.896 2.156.07.147.142.346.042.54-.093.199-.176.287-.323.457-.147.17-.286.299-.433.48-.135.159-.287.328-.117.621.17.287.755 1.242 1.617 2.01 1.112.99 2.014 1.306 2.337 1.441.24.1.527.076.703-.11.223-.241.498-.64.778-1.032.2-.282.451-.317.715-.217.27.093 1.693.797 1.986.943.293.147.486.217.557.34.07.123.07.703-.17 1.383z"/></g><defs><clipPath id="eclip0"><path transform="translate(.747 .424)" d="M0 0h19.933v19.933H0z"/></clipPath></defs></symbol></svg>